<svg id="SvgjsSvg1024" width="288" height="288" xmlns="http://www.w3.org/2000/svg" version="1.1" xmlns:xlink="http://www.w3.org/1999/xlink" xmlns:svgjs="http://svgjs.com/svgjs"><defs id="SvgjsDefs1025"></defs><g id="SvgjsG1026" transform="matrix(1,0,0,1,0,0)"><svg xmlns="http://www.w3.org/2000/svg" width="288" height="288" enable-background="new 0 0 64 64" viewBox="0 0 64 64"><rect width="11.403" height="3.797" x="26.298" y="57.341" fill="#ffbf66" class="color75BBA7 svgShape"></rect><path fill="#ffbf66" d="M18.689,0v64h-5.1c-2.7,0-4.88-2.181-4.88-4.87v-7.561h5.24c0.529,0,1.02-0.21,1.38-0.569
			c0.35-0.351,0.569-0.841,0.569-1.381c0-1.079-0.869-1.949-1.949-1.949H8.71v-7.84h5.24c0.529,0,1.02-0.221,1.38-0.57
			c0.35-0.36,0.569-0.851,0.569-1.38c0-1.08-0.869-1.95-1.949-1.95H8.71v-7.85h5.24c0.529,0,1.02-0.221,1.38-0.57
			c0.35-0.351,0.569-0.84,0.569-1.38c0-1.07-0.869-1.95-1.949-1.95H8.71v-7.84h5.24c0.529,0,1.02-0.21,1.38-0.57
			c0.35-0.36,0.569-0.84,0.569-1.38c0-1.08-0.869-1.95-1.949-1.95H8.71V4.88c0-2.69,2.18-4.88,4.88-4.88H18.689z" class="color93CDBE svgShape"></path><path fill="#767fad" d="M61.14,4.88v54.25c0,2.689-2.18,4.87-4.87,4.87h-37.58V0h37.58C58.96,0,61.14,2.189,61.14,4.88z" class="colorEDEDED svgShape"></path><path fill="#fedc7d" d="M15.899 14.39c0 .54-.22 1.02-.569 1.38-.36.36-.851.57-1.38.57H4.81c-1.08 0-1.949-.88-1.949-1.95 0-.54.22-1.03.569-1.38.36-.351.851-.57 1.38-.57h9.141C15.03 12.439 15.899 13.31 15.899 14.39zM15.899 26.13c0 .54-.22 1.029-.569 1.38-.36.35-.851.57-1.38.57H4.81c-1.08 0-1.949-.87-1.949-1.95 0-.54.22-1.021.569-1.38.36-.36.851-.57 1.38-.57h9.141C15.03 24.18 15.899 25.06 15.899 26.13zM15.899 37.88c0 .529-.22 1.02-.569 1.38-.36.35-.851.57-1.38.57H4.81c-1.08 0-1.949-.87-1.949-1.95 0-.54.22-1.03.569-1.38.36-.351.851-.57 1.38-.57h9.141C15.03 35.93 15.899 36.8 15.899 37.88zM15.899 49.619c0 .54-.22 1.03-.569 1.381-.36.359-.851.569-1.38.569H4.81c-1.08 0-1.949-.87-1.949-1.95 0-.539.22-1.029.569-1.38.36-.35.851-.569 1.38-.569h9.141C15.03 47.67 15.899 48.54 15.899 49.619z" class="colorFEDC7D svgShape"></path><rect width="24.432" height="1.442" x="27.412" y="33.522" fill="#6666ff" class="colorC9C9C9 svgShape"></rect><polygon fill="#ff6699" points="48.629 9.729 48.629 15.34 48.126 14.953 47.116 14.174 44.704 12.317 44.704 9.729" class="colorE15F5A svgShape"></polygon><polygon fill="#f4f4f4" points="49.855 33.506 29.425 33.522 29.413 19.13 31.131 17.805 38.638 11.994 39.62 11.228 40.61 11.994 43.85 14.49 47.116 17.01 48.126 17.784 49.844 19.11" class="colorF4F4F4 svgShape"></polygon><polygon fill="#ffbf66" points="51.844 17.82 51.844 20.651 49.844 19.11 48.126 17.784 47.116 17.01 43.85 14.49 40.61 11.994 39.62 11.228 38.638 11.994 31.131 17.805 29.413 19.13 27.417 20.672 27.412 17.84 31.126 14.973 34.968 11.998 39.62 8.396 43.85 11.658 44.28 11.99 44.704 12.317 47.116 14.174 48.126 14.953 48.629 15.34" class="colorF26E62 svgShape"></polygon><rect width="5.295" height="1.763" x="44.019" y="7.965" fill="#ffbf66" class="colorF26E62 svgShape"></rect><path fill="#6666ff" d="M29.413,18.464" class="color788D9A svgShape"></path><path fill="#f4f4f4" d="M27.418,20.671" class="colorF4F4F4 svgShape"></path><rect width="2.564" height="2.123" x="41.33" y="23.939" fill="#6666ff" class="color83A6B8 svgShape"></rect><rect width="2.564" height="2.126" x="41.33" y="26.256" fill="#6666ff" class="color83A6B8 svgShape"></rect><rect width="2.567" height="2.123" x="44.197" y="23.939" fill="#6666ff" class="color83A6B8 svgShape"></rect><rect width="2.567" height="2.126" x="44.197" y="26.256" fill="#6666ff" class="color83A6B8 svgShape"></rect><path fill="#dadde1" d="M41.057,23.654v5.01h5.979v-5.01H41.057z M43.895,28.382h-2.567v-2.126h2.567V28.382z M43.895,26.063
								h-2.567v-2.123h2.567V26.063z M46.765,28.382h-2.567v-2.126h2.567V28.382z M46.765,26.063h-2.567v-2.123h2.567V26.063z" class="colorDADDE1 svgShape"></path><rect width="6.138" height="9.868" x="32.635" y="23.654" fill="#6666ff" class="colorBBB svgShape"></rect><polygon fill="#ffbf66" points="54.844 46.668 54.802 39.779 47.816 39.747 45.002 42.578 49.953 42.469 41.377 51.088 33.474 43.144 21.725 54.954 23.852 57.092 33.474 47.419 41.377 55.364 52.003 44.685 51.895 49.637" class="colorF26E62 svgShape"></polygon></svg></g></svg>